{
  "title": "Raanjhanaa 2013 BRRip 720p x264 Hindi ESubs - ViZNU [P2PDL]",
  "uid": 9288498,
  "size": 1045040207,
  "categoryP": "video",
  "categoryS": "hd___movies",
  "magnet": "?xt=urn:btih:8ecd63e4b0b18de4f49de27d975dd0cc5a261cb6&amp;dn=Raanjhanaa+2013+BRRip+720p+x264+Hindi+ESubs+-+ViZNU+%5BP2PDL%5D&amp;tr=udp%3A%2F%2Ftracker.openbittorrent.com%3A80&amp;tr=udp%3A%2F%2Fopen.demonii.com%3A1337&amp;tr=udp%3A%2F%2Ftracker.coppersurfer.tk%3A6969&amp;tr=udp%3A%2F%2Fexodus.desync.com%3A6969",
  "seeders": 36,
  "leechers": 16,
  "uploader": "Vitamin_X",
  "files": -1,
  "time": 1386053700,
  "description": "_______ Visit us at our Semi Public Bittorrent Community ________\n  &lt;a href=&quot;\nhttp://p2pdl.com&quot; rel=&quot;nofollow&quot; target=&quot;_NEW&quot;&gt;\nhttp://p2pdl.com&lt;/a&gt;  _____________________________ &lt;a href=&quot; http://p2pdl.com&quot; rel=&quot;nofollow&quot; target=&quot;_NEW&quot;&gt; http://p2pdl.com&lt;/a&gt;\n\n\nRaanjhanaa 2013 BRRip 720p x264 Hindi ESubs - ViZNU\n\n\nGenre: Drama | Romance\nPlot: A small-town boy needs to break through the \nclass divide to gain acceptance from his childhood \nsweetheart who is in love with big city ideals.\nDirector: Aanand Rai\nStars: Dhanush, Sonam Kapoor, Mohammed Zeeshan Ayyub.\nRated: U/A .\n\n\nIMDb: &lt;a href=&quot;\nhttp://www.imdb.com/title/tt2359810/&quot; rel=&quot;nofollow&quot; target=&quot;_NEW&quot;&gt;\nhttp://www.imdb.com/title/tt2359810/&lt;/a&gt;\n\n\nGeneral\nFormat                         : MPEG-4\nFile size                      : 987 MiB\nDuration                       : 2h 19mn\nOverall bit rate mode          : Variable\nOverall bit rate               : 985 Kbps\nWriting application            : Lavf54.20.3\n\nVideo\nFormat                         : AVC\nBit rate                       : 900 Kbps\nWidth                          : 1 280 pixels\nHeight                         : 544 pixels\nDisplay aspect ratio           : 2.35:1\nFrame rate mode                : Variable\nFrame rate                     : 24.000 fps\nBit depth                      : 8 bits\nStream size                    : 901 MiB (91%)\nWriting library                : x264 core 140 r2377 1ca7bb9\n\nAudio\nFormat                         : AAC\nBit rate                       : 80.0 Kbps\nChannel(s)                     : 2 channels\nChannel positions              : Front: L R\nSampling rate                  : 48.0 KHz / 24.0 KHz\nStream size                    : 80.1 MiB (8%)\nLanguage                       : Hindi\n\nSubtitle                       : Yes (English)\n\nSource                         : Blu-Ray - 720p - x264 - DTS - [DDR]\n\nScreenshots: &lt;a href=&quot;\nhttp://ultraimg.com/images/DnJ1.png&quot; rel=&quot;nofollow&quot; target=&quot;_NEW&quot;&gt;\nhttp://ultraimg.com/images/DnJ1.png&lt;/a&gt; &lt;a href=&quot;\nhttp://ultraimg.com/images/j2BiV.png&quot; rel=&quot;nofollow&quot; target=&quot;_NEW&quot;&gt;\nhttp://ultraimg.com/images/j2BiV.png&lt;/a&gt; &lt;a href=&quot;\nhttp://ultraimg.com/images/B50kf.png&quot; rel=&quot;nofollow&quot; target=&quot;_NEW&quot;&gt;\nhttp://ultraimg.com/images/B50kf.png&lt;/a&gt; &lt;a href=&quot;\nhttp://ultraimg.com/images/uTY3e.png&quot; rel=&quot;nofollow&quot; target=&quot;_NEW&quot;&gt;\nhttp://ultraimg.com/images/uTY3e.png&lt;/a&gt; &lt;a href=&quot;\nhttp://ultraimg.com/images/B92qx.png&quot; rel=&quot;nofollow&quot; target=&quot;_NEW&quot;&gt;\nhttp://ultraimg.com/images/B92qx.png&lt;/a&gt;\n\n----------------------------------------------------------------------------------------------------\n\n\nEncoded using revolutionary 10bit encoding, which enables us to provide you more crispier \nand sharper images at small sizes, just make sure you follow our instructions without a fault.\nRecommend to you to use latest version of VLC player. Install K-Lite Codec Pack or shark007 codecs\nin case of any kind of problem in playback (For non-VLC Media Player users). Alternatively, install\nCore AVC codecs, the fastest decoder that there is coupled with Community Center Codec Pack and play\non Windows Media Player Classic. Check sample to be sure.\nEnjoy!\n\nEncoder Notes:Looking For Early Access To Anything You Can Provide DVDScr, R5, DVDR, BluRay, Direct\nAudio, Music Releases and Seedboxes. We require dedicated servers, so as to do more \nand fast releases of movies.\nIf You Got anything to offer please contact us at &quot;&lt;a class=&quot;__cf_email__&quot; href=&quot;/cdn-cgi/l/email-protection&quot; data-cfemail=&quot;76060411361e03051e5815191b&quot;&gt;[email&amp;#160;protected]&lt;/a&gt;&lt;script cf-hash='f9e31' type=&quot;text/javascript&quot;&gt;\n/* &lt;![CDATA[ */!function(){try{var t=&quot;currentScript&quot;in document?document.currentScript:function(){for(var t=document.getElementsByTagName(&quot;script&quot;),e=t.length;e--;)if(t[e].getAttribute(&quot;cf-hash&quot;))return t[e]}();if(t&amp;&amp;t.previousSibling){var e,r,n,i,c=t.previousSibling,a=c.getAttribute(&quot;data-cfemail&quot;);if(a){for(e=&quot;&quot;,r=parseInt(a.substr(0,2),16),n=2;a.length-n;n+=2)i=parseInt(a.substr(n,2),16)^r,e+=String.fromCharCode(i);e=document.createTextNode(e),c.parentNode.replaceChild(e,c)}}}catch(u){}}();/* ]]&gt; */&lt;/script&gt;&quot;.\n\nFacebook Fan Page:  \nSearch P2PDL on FB and don't forget to hit like!!!\n\nSupport us, please consider a donation.\n\nFor more of our team uploads visit @           &lt;a href=&quot;\nhttp://thepiratebay.se/user/varuttee&quot; rel=&quot;nofollow&quot; target=&quot;_NEW&quot;&gt;\nhttp://thepiratebay.se/user/varuttee&lt;/a&gt;\t",
  "parsed": {
    "xt": "urn:btih:8ecd63e4b0b18de4f49de27d975dd0cc5a261cb6",
    "dn": "Raanjhanaa 2013 BRRip 720p x264 Hindi ESubs - ViZNU [P2PDL]",
    "tr": [
      "udp://exodus.desync.com:6969",
      "udp://open.demonii.com:1337",
      "udp://tracker.coppersurfer.tk:6969",
      "udp://tracker.openbittorrent.com:80"
    ],
    "infoHash": "8ecd63e4b0b18de4f49de27d975dd0cc5a261cb6",
    "infoHashBuffer": {
      "type": "Buffer",
      "data": [
        142,
        205,
        99,
        228,
        176,
        177,
        141,
        228,
        244,
        157,
        226,
        125,
        151,
        93,
        208,
        204,
        90,
        38,
        28,
        182
      ]
    },
    "name": "Raanjhanaa 2013 BRRip 720p x264 Hindi ESubs - ViZNU [P2PDL]",
    "announce": [
      "udp://exodus.desync.com:6969",
      "udp://open.demonii.com:1337",
      "udp://tracker.coppersurfer.tk:6969",
      "udp://tracker.openbittorrent.com:80"
    ],
    "urlList": []
  },
  "previous": 52,
  "peers": 54,
  "last_updated": "2016-12-25T07:37:08.338Z"
}